<svg xmlns="http://www.w3.org/2000/svg" viewBox="0 0 24 16" width="24" height="16"><rect width="24" height="16" fill="#fff"/><rect y="0.000" width="24" height="1.231" fill="#B22234"/><rect y="1.231" width="24" height="1.231" fill="#fff"/><rect y="2.462" width="24" height="1.231" fill="#B22234"/><rect y="3.693" width="24" height="1.231" fill="#fff"/><rect y="4.924" width="24" height="1.231" fill="#B22234"/><rect y="6.155" width="24" height="1.231" fill="#fff"/><rect y="7.386" width="24" height="1.231" fill="#B22234"/><rect y="8.617" width="24" height="1.231" fill="#fff"/><rect y="9.848" width="24" height="1.231" fill="#B22234"/><rect y="11.079" width="24" height="1.231" fill="#fff"/><rect y="12.310" width="24" height="1.231" fill="#B22234"/><rect y="13.541" width="24" height="1.231" fill="#fff"/><rect y="14.772" width="24" height="1.231" fill="#B22234"/><rect width="10.5" height="8.6" fill="#3C3B6E"/><circle cx="1.30" cy="1.10" r="0.42" fill="#fff"/><circle cx="4.40" cy="1.10" r="0.42" fill="#fff"/><circle cx="7.50" cy="1.10" r="0.42" fill="#fff"/><circle cx="2.85" cy="2.70" r="0.42" fill="#fff"/><circle cx="5.95" cy="2.70" r="0.42" fill="#fff"/><circle cx="9.05" cy="2.70" r="0.42" fill="#fff"/><circle cx="1.30" cy="4.30" r="0.42" fill="#fff"/><circle cx="4.40" cy="4.30" r="0.42" fill="#fff"/><circle cx="7.50" cy="4.30" r="0.42" fill="#fff"/><circle cx="2.85" cy="5.90" r="0.42" fill="#fff"/><circle cx="5.95" cy="5.90" r="0.42" fill="#fff"/><circle cx="9.05" cy="5.90" r="0.42" fill="#fff"/><circle cx="1.30" cy="7.50" r="0.42" fill="#fff"/><circle cx="4.40" cy="7.50" r="0.42" fill="#fff"/><circle cx="7.50" cy="7.50" r="0.42" fill="#fff"/></svg>